<?xml version="1.0" encoding="UTF-8"?>
<svg version="1.1" xmlns="http://www.w3.org/2000/svg" width="36" height="36">
<path d="M0 0 C8.15552546 7.55877969 8.15552546 7.55877969 8.80078125 13.609375 C8.98510106 19.85684646 8.3207176 23.33107638 4.5625 28.375 C0.34641407 32.61310204 -3.24981372 34.51439749 -9.25 34.625 C-14.62546813 34.53917975 -18.21487274 33.63423524 -22.09765625 29.6875 C-26.93339223 24.20014002 -27.85701816 20.87534913 -27.77734375 13.4921875 C-27.09254048 7.21088854 -24.14977431 3.77277495 -19.375 -0.125 C-13.33973411 -3.08969202 -5.96222779 -2.81850768 0 0 Z " fill="#4991FF" transform="translate(27.4375,1.625)"/>
<path d="M0 0 C2.625 0.375 2.625 0.375 5 1 C6 7.625 6 7.625 6 11 C5.34 10.34 4.68 9.68 4 9 C0.40320934 9.32326553 0.40320934 9.32326553 -3 10 C-3 9.34 -3 8.68 -3 8 C-2.34 8 -1.68 8 -1 8 C-1.20625 7.05125 -1.4125 6.1025 -1.625 5.125 C-1.74875 4.09375 -1.8725 3.0625 -2 2 C-1.34 1.34 -0.68 0.68 0 0 Z " fill="#D5E5FF" transform="translate(16,14)"/>
<path d="M0 0 C1.32 0 2.64 0 4 0 C4 1.32 4 2.64 4 4 C2.35 3.67 0.7 3.34 -1 3 C-0.67 2.01 -0.34 1.02 0 0 Z " fill="#4890FF" transform="translate(16,16)"/>
<path d="M0 0 C1.32 0 2.64 0 4 0 C4 0.99 4 1.98 4 3 C3.34 3 2.68 3 2 3 C2 3.66 2 4.32 2 5 C1.34 5 0.68 5 0 5 C-0.5625 3.0625 -0.5625 3.0625 -1 1 C-0.67 0.67 -0.34 0.34 0 0 Z " fill="#5B9BFF" transform="translate(21,12)"/>
<path d="M0 0 C2.475 0.495 2.475 0.495 5 1 C4.34 2.98 3.68 4.96 3 7 C2.67 5.68 2.34 4.36 2 3 C1.34 3 0.68 3 0 3 C0 2.01 0 1.02 0 0 Z " fill="#4E93FF" transform="translate(11,12)"/>
</svg>
